<?xml version="1.0" encoding="UTF-8"?><svg id="Layer_1" xmlns="http://www.w3.org/2000/svg" viewBox="0 0 266.43 113.29"><defs><style>.cls-1{fill:#fff;stroke:#000;stroke-miterlimit:10;stroke-width:2px;}</style></defs><path class="cls-1" d="m48.85,85.15c.51,1.38.49,2.6-.05,3.65-.54,1.05-1.51,1.73-2.89,2.02-1.16.36-2.23.23-3.22-.38-.98-.62-1.76-1.62-2.34-3l-6-13.73c-1.09-2.62-2.4-4.54-3.92-5.78-1.53-1.23-3.89-1.85-7.08-1.85h-10.9v.54c1.09,0,2.13.44,3.11,1.31.98.87,1.47,2,1.47,3.38v15.04c0,1.45-.38,2.6-1.14,3.43-.76.84-1.84,1.25-3.22,1.25s-2.45-.42-3.22-1.25c-.76-.83-1.14-1.98-1.14-3.43V19.2c0-1.45.38-2.6,1.14-3.43.76-.83,1.83-1.25,3.22-1.25s2.45.42,3.22,1.25c.76.84,1.14,1.98,1.14,3.43v38.69h5.56c1.89,0,3.5-.33,4.85-.98,1.34-.65,2.31-1.38,2.89-2.18.58-.8,1.27-2,2.07-3.6l5.78-11.12c1.23-2.91,3.05-4,5.45-3.27,1.31.36,2.25,1.05,2.83,2.07.58,1.02.62,2.22.11,3.6l-5.45,10.79c-1.02,2.47-2.22,4.25-3.6,5.34-1.31,1.31-3.49,1.82-6.54,1.53l-.33.33c3.49.8,6.08,2.02,7.79,3.65,1.71,1.63,3.07,3.69,4.09,6.16l6.32,14.93Z"/><path class="cls-1" d="m86.35,91.8c-8.14,0-14.84-2.65-20.11-7.96-5.27-5.3-7.9-11.99-7.9-20.06s2.63-14.75,7.9-20.06c5.27-5.3,11.97-7.96,20.11-7.96s14.73,2.65,20,7.96c5.27,5.31,7.9,11.99,7.9,20.06s-2.63,14.75-7.9,20.06c-5.27,5.31-11.94,7.96-20,7.96Zm-13.73-13.84c3.56,3.71,8.14,5.56,13.73,5.56s10.17-1.85,13.73-5.56c3.56-3.71,5.34-8.43,5.34-14.17s-1.87-10.55-5.61-14.22c-3.74-3.67-8.88-5.5-15.42-5.5-3.63,0-7.14.58-10.52,1.74-3.38,1.16-5.9,2.94-7.58,5.34l.44.33c1.02-1.31,2.31-2.31,3.87-3,1.56-.69,3-.96,4.31-.82-5.09,3.71-7.63,9.08-7.63,16.13,0,5.74,1.78,10.46,5.34,14.17Z"/><path class="cls-1" d="m145.31,35.77c7.7,0,13.44,2.18,17.22,6.54,1.81,2.04,1.78,4-.11,5.89-1.96,1.96-3.92,2.04-5.89.22-3.71-3.12-7.92-4.69-12.64-4.69-6.47,0-10.72,1.45-12.75,4.36l.44.22c1.16-1.53,2.76-2.14,4.8-1.85-1.16,1.09-1.74,2.51-1.74,4.25,0,2.04.91,3.65,2.72,4.85s5.23,2.45,10.25,3.76c3.05.73,5.4,1.38,7.03,1.96,1.63.58,3.47,1.45,5.5,2.62,2.03,1.16,3.52,2.69,4.47,4.58.94,1.89,1.42,4.18,1.42,6.87,0,5.31-1.85,9.37-5.56,12.21-3.71,2.83-8.61,4.25-14.71,4.25-4.65,0-8.79-.78-12.43-2.34-3.63-1.56-6.32-3.51-8.07-5.83-1.96-2.25-1.89-4.32.22-6.21,2.03-1.74,4-1.74,5.89,0,4.14,4.29,9.05,6.43,14.71,6.43,3.34,0,6.07-.67,8.17-2.02,2.11-1.34,3.16-3.18,3.16-5.5,0-.94-.18-1.85-.54-2.73,2.03.51,3.34,1.67,3.92,3.49h.44c-.65-3.78-6.94-7.3-18.86-10.57-5.67-1.53-9.79-3.36-12.37-5.5-2.58-2.14-3.87-5.25-3.87-9.32,0-5.09,1.82-9.01,5.45-11.77,3.63-2.76,8.21-4.14,13.73-4.14Z"/><path class="cls-1" d="m218.78,37.79c.8-.83,1.89-1.25,3.27-1.25s2.45.42,3.21,1.25c.76.84,1.14,1.98,1.14,3.43v45.13c0,1.45-.38,2.6-1.14,3.43-.76.84-1.84,1.25-3.21,1.25s-2.47-.42-3.27-1.25c-.8-.83-1.2-1.98-1.2-3.43v-2.73h-.54c-1.24,2.11-3.36,4-6.38,5.67-3.02,1.67-6.59,2.51-10.74,2.51-6.47,0-11.75-1.83-15.86-5.5-4.11-3.67-6.16-9.36-6.16-17.06v-28.01c0-1.45.38-2.6,1.14-3.43.76-.83,1.83-1.25,3.21-1.25s2.45.42,3.22,1.25c.76.84,1.14,1.98,1.14,3.43v26.7c0,8.07,1.71,13.81,5.12,17.22v-.54c-.51-.8-.64-1.54-.38-2.23.25-.69.67-1.04,1.25-1.04,2.4,1.46,5.45,2.18,9.16,2.18,5.01-.07,8.9-1.32,11.66-3.76,2.76-2.43,4.14-5.1,4.14-8.01v-30.52c0-1.45.4-2.6,1.2-3.43Z"/><path class="cls-1" d="m249.62,91.8c-1.82,0-3.34-.62-4.58-1.85-1.24-1.24-1.85-2.73-1.85-4.47s.62-3.23,1.85-4.47,2.76-1.85,4.58-1.85,3.23.62,4.47,1.85c1.24,1.24,1.85,2.73,1.85,4.47s-.62,3.23-1.85,4.47c-1.24,1.23-2.72,1.85-4.47,1.85Zm-3.27-71.34c.8-.83,1.89-1.25,3.27-1.25s2.45.42,3.22,1.25c.76.84,1.14,1.98,1.14,3.43v42.73c0,1.45-.38,2.6-1.14,3.43-.76.84-1.84,1.25-3.22,1.25s-2.47-.42-3.27-1.25c-.8-.83-1.2-1.98-1.2-3.43V23.89c0-1.45.4-2.6,1.2-3.43Z"/></svg>